<svg xmlns="http://www.w3.org/2000/svg" viewBox="0 0 58.4482421875 45"><defs><filter id="master_svg0_109_4650" filterUnits="objectBoundingBox" color-interpolation-filters="sRGB" x="-1.6392474140733533" y="-1.1064278628147355" width="4.278494828146707" height="3.7660696570368386"><feFlood flood-opacity="0" result="BackgroundImageFix"/><feColorMatrix in="SourceAlpha" type="matrix" values="0 0 0 0 0 0 0 0 0 0 0 0 0 0 0 0 0 0 127 0"/><feOffset dy="4" dx="0"/><feGaussianBlur stdDeviation="5"/><feColorMatrix type="matrix" values="0 0 0 0 0 0 0 0 0 0 0 0 0 0 0 0 0 0 0.30000001192092896 0"/><feBlend mode="normal" in2="BackgroundImageFix" result="effect1_dropShadow"/><feBlend mode="normal" in="SourceGraphic" in2="effect1_dropShadow" result="shape"/></filter><filter id="master_svg1_109_4651" filterUnits="objectBoundingBox" color-interpolation-filters="sRGB" x="-2.0724860994389176" y="-1.1161241101790644" width="5.144972198877835" height="3.7903102754476614"><feFlood flood-opacity="0" result="BackgroundImageFix"/><feColorMatrix in="SourceAlpha" type="matrix" values="0 0 0 0 0 0 0 0 0 0 0 0 0 0 0 0 0 0 127 0"/><feOffset dy="4" dx="0"/><feGaussianBlur stdDeviation="5"/><feColorMatrix type="matrix" values="0 0 0 0 0 0 0 0 0 0 0 0 0 0 0 0 0 0 0.30000001192092896 0"/><feBlend mode="normal" in2="BackgroundImageFix" result="effect1_dropShadow"/><feBlend mode="normal" in="SourceGraphic" in2="effect1_dropShadow" result="shape"/></filter><filter id="master_svg2_109_4652" filterUnits="objectBoundingBox" color-interpolation-filters="sRGB" x="-3.303820086085293" y="-1.5102260530038683" width="7.607640172170586" height="4.77556513250967"><feFlood flood-opacity="0" result="BackgroundImageFix"/><feColorMatrix in="SourceAlpha" type="matrix" values="0 0 0 0 0 0 0 0 0 0 0 0 0 0 0 0 0 0 127 0"/><feOffset dy="4" dx="0"/><feGaussianBlur stdDeviation="5"/><feColorMatrix type="matrix" values="0 0 0 0 0 0 0 0 0 0 0 0 0 0 0 0 0 0 0.30000001192092896 0"/><feBlend mode="normal" in2="BackgroundImageFix" result="effect1_dropShadow"/><feBlend mode="normal" in="SourceGraphic" in2="effect1_dropShadow" result="shape"/></filter><filter id="master_svg3_109_4653" filterUnits="objectBoundingBox" color-interpolation-filters="sRGB" x="-5.52380956143749" y="-6.186666627332899" width="12.04761912287498" height="16.46666656833225"><feFlood flood-opacity="0" result="BackgroundImageFix"/><feColorMatrix in="SourceAlpha" type="matrix" values="0 0 0 0 0 0 0 0 0 0 0 0 0 0 0 0 0 0 127 0"/><feOffset dy="4" dx="0"/><feGaussianBlur stdDeviation="5"/><feColorMatrix type="matrix" values="0 0 0 0 0 0 0 0 0 0 0 0 0 0 0 0 0 0 0.30000001192092896 0"/><feBlend mode="normal" in2="BackgroundImageFix" result="effect1_dropShadow"/><feBlend mode="normal" in="SourceGraphic" in2="effect1_dropShadow" result="shape"/></filter></defs><path d="M31.24755859375,24.064708500000002L33.13992889375,22.0005765C33.23539279375,22.0965615,33.33676929375,22.1995925,33.43983629375,22.3017425C34.03369779375,22.9109665,34.79553599375,23.3112595,35.61859659375,23.4465225C36.33461479375,23.580312499999998,37.07264609375,23.4883275,37.73822019375,23.1823435C38.15275379375,23.0041405,38.48553899375,22.6664025,38.66750999375,22.239220500000002C38.89560799375,21.6932475,38.791696593750004,21.1728115,38.33972409375,20.803839699999997C38.04207749375,20.5713835,37.73179669375,20.357040400000002,37.41043519375,20.161880500000002C36.83427529375,19.792908699999998,36.24544429375,19.4450712,35.67266269375,19.0690536C35.21451779375,18.7843084,34.82154059375,18.3987255,34.52118869375,17.9392414C34.16554399375,17.370031400000002,34.00095249375,16.6939893,34.05316539375,16.016887699999998C34.13764619375,14.7091942,34.71296049375,13.6683226,35.67266269375,12.8467211C36.56647059375,12.08235872,37.615721693750004,11.70193875,38.75029949375,11.580415688C39.51107789375,11.49116464,40.28108219375,11.5466622552,41.02283569375,11.74420747C41.86215559375,11.96469218,42.63414559375,12.40339756,43.26664759375,13.0193189C43.32409259375,13.0756774,43.38323159375,13.1311553,43.44152259375,13.1875138C43.44422259375,13.1949943,43.446477593750004,13.2026405,43.44827959375,13.2104095L41.65897659375,15.1829576C41.53985859375,15.0649571,41.42496559375,14.9381504,41.29655359375,14.830717100000001C40.47455409375,14.1262355,39.53766059375,13.8514876,38.483340293750004,14.0381751C37.99510239375,14.112067,37.53945829375,14.3372691,37.17557719375,14.6845369C36.91342349375,14.9217157,36.74338719375,15.2505207,36.69741579375,15.609169C36.64757249375,16.0776496,36.84187889375,16.4395771,37.19669819375,16.7011151C37.48900219375,16.915982200000002,37.80411529375,17.0982666,38.11078169375,17.2928796C38.77311129375,17.7120466,39.45233819375,18.1056752,40.09523579375,18.554781900000002C40.71228409375,18.9668531,41.156864193749996,19.6070757,41.339638593749996,20.3468065C41.46310859375,20.8639336,41.47522759375,21.4031391,41.37512159375,21.9257245C41.13519859375,23.2642405,40.42302419375,24.2672475,39.33997919375,25.0016685C38.52220539375,25.554685499999998,37.61994929375,25.8452835,36.65686799375,25.9527165C35.67686179375,26.0701195,34.68410349375,25.968349500000002,33.74481339375,25.654193499999998C33.10794569375,25.4441755,32.511244293749996,25.1196235,31.98169857375,24.6952175C31.73332345375,24.4909165,31.49339813375,24.2769335,31.24755859375,24.064708500000002Z" fill="#FFFFFF" fill-opacity="1" style="mix-blend-mode:passthrough" filter="url(#master_svg0_109_4650)"/><path d="M19.2029214,23.020218296875L24.6502457,23.020218296875C24.6189871,23.054562296874998,24.587729500000002,23.088025296875,24.557316800000002,23.122368296875003Q23.4928579,24.345525296875,22.4258652,25.566040296875002C22.4020143,25.594171296875,22.3687944,25.611801296875,22.3329372,25.615352296875002C21.2346864,25.615352296875002,20.136435,25.615352296875002,19.0381846,25.615352296875002L15.16896166,25.615350296875L15,25.615350296875C15.089549676,25.499992296875,15.17318569,25.383751296874998,15.26442501,25.275438296875002C15.66908818,24.791107296874998,15.92928916,24.218715296875,16.172594,23.640160296875003C16.5155861,22.818558296875,16.8754745,22.004001296875,17.2235353,21.184162096875C17.5057013,20.518424996874998,17.7794192,19.849167796875,18.0582061,19.181672096875Q18.7171566,17.603634796875,19.381176,16.024716396875C19.761339200000002,15.114174096875,20.1415033,14.200989696875,20.5174427,13.290447696874999C20.696542700000002,12.859833196875,20.8807106,12.430980096875,21.0657229,12.002127046875C21.1010857,11.940971136875,21.0953178,11.863161626875,21.051362,11.808394546875C20.974483499999998,11.703602936875,20.5919986,11.385701496875,20.5176549,11.280029296875L23.800745,11.280029296875L19.2029214,23.020218296875Z" fill="#FFFFFF" fill-opacity="1" style="mix-blend-mode:passthrough" filter="url(#master_svg1_109_4651)"/><path d="M25.38037109375,25.61358153125L25.67351907375,25.61445953125L27.87846879375,25.61445953125C27.93253679375,25.61445953125,27.95788099375,25.60301353125,27.97393249375,25.54753453125C28.021241893750002,25.38198153125,28.07446529375,25.219071531250002,28.12430859375,25.05527853125L30.226335093750002,18.94776753125Q30.86802099375,16.92562773125,31.42559529375,15.07636396925C31.42977239375,15.05782701425,31.43252279375,15.03900109625,31.43396949375,15.02001953125L28.08829309375,15.02001953125C28.16179199375,15.11864691925,28.56326249375,15.29253527125,28.63084719375,15.38059550125C28.67366269375,15.42774638125,28.68593909375,15.49671778125,28.662139893750002,15.55671453125C28.61567549375,15.68264061125,28.57847549375,15.81385004125,28.53961349375,15.94241780125Q28.21642349375,17.15046053125,27.87849979375,18.27322793125L25.57636663375,25.01389123125C25.51638531375,25.21466953125,25.44626605475,25.41280353125,25.38037109375,25.61358153125Z" fill="#FFFFFF" fill-opacity="1" style="mix-blend-mode:passthrough" filter="url(#master_svg2_109_4652)"/><path d="M28.96533203125,13.5862069L32.07623673125,13.5862069Q32.08738513125,13.3215191,32.57639363125,11.068641946C32.58119583125,11.046059188,32.58435823125,11.023124408,32.58602163125,11L29.23998755125,11C29.32449314125,11.1201534,29.40399909125,11.2338845,29.48170471125,11.34116435C29.53093219125,11.39860621,29.54504681125,11.48263097,29.51768356125,11.55572248C29.46426111125,11.70913261,29.42149022125,11.86897933,29.37680858125,12.0256077Q29.35386062125,12.2183886,28.96533203125,13.5862069Z" fill="#4C90FF" fill-opacity="1" style="mix-blend-mode:passthrough" filter="url(#master_svg3_109_4653)"/></svg>
